<svg viewBox="0 0 20 20" xmlns="http://www.w3.org/2000/svg"><path d="M10.294 17H5.88c-.637 0-1.092-.138-1.364-.415-.273-.277-.41-.718-.41-1.323V4.738c0-.617.14-1.062.42-1.332.279-.27.73-.406 1.354-.406h4.68c.69 0 1.288.041 1.793.124.506.083.96.242 1.36.478.34.197.644.447.906.75.524.598.811 1.367.808 2.162 0 1.401-.722 2.426-2.167 3.075 1.897.586 2.847 1.726 2.847 3.421a3.756 3.756 0 01-2.296 3.504c-.488.19-.997.317-1.517.377-.571.073-1.238.109-2 .109zm-.217-6.217h-3.47v4.087h3.569c1.977 0 3.084-.694 3.084-2.076 0-.707-.375-1.216-.887-1.533-.512-.319-1.277-.478-2.296-.478zM6.607 5.13v3.619h3.106c.729 0 1.496-.116 1.894-.249a1.6 1.6 0 00.91-.765c.165-.267.247-.566.247-.897 0-.707-.264-1.178-.778-1.409-.602-.27-1.193-.299-2.58-.299h-2.8z"/></svg>